<svg xmlns="http://www.w3.org/2000/svg" viewBox="0 0 334.97 77.55"><defs><style>.cls-1{fill:#d91a2a;}.cls-2{fill:#fcfcfc;}</style></defs><g id="Layer_2" data-name="Layer 2"><g id="v2"><path class="cls-1" d="M1.35,10.77c.1,0,0-.06.14-.08a1.63,1.63,0,0,0-1.36.8c-.14.26-.14.36-.12.34l.22-.34A1.76,1.76,0,0,1,1,10.88C1.19,10.81,1.3,10.79,1.35,10.77Z"/><polygon class="cls-1" points="0.8 31.15 0.75 30.81 0.94 33.65 0.8 31.15"/><path class="cls-1" d="M1.13,38.92.94,37.47c.15,3.92.42,9,.46,11.76.12-1.72-.25-6.55-.29-9.78Z"/><path class="cls-1" d="M1.28,57c0,.39,0,.93.05,1.84,0-.59.13,2.09-.05-2.25Z"/><path class="cls-1" d="M1.28,57c-.07-1.9,0,1.25,0,0Z"/><path class="cls-1" d="M1.45,65.26c.11,2.57.14,2,.16.57l-.15-2.5C1.44,63.85,1.5,66.09,1.45,65.26Z"/><path class="cls-1" d="M1.82,68.21l-.07-1.3A8.23,8.23,0,0,0,1.82,68.21Z"/><path class="cls-1" d="M1.68,65.64c.06.23,0-.32-.08-1.49l.15,2.76A4,4,0,0,0,1.68,65.64Z"/><path class="cls-1" d="M1.57,62.59c0-1.41,0-3.22.11-.71C1.49,57.08,1.39,57.8,1.57,62.59Z"/><path class="cls-1" d="M1.6,48.26l-.11-1.62c.06.81.07,3.62.12,3.51Z"/><path class="cls-1" d="M7.67,77.55c.16,0-.84-.07-1-.12l-1.85.11C5.74,77.53,7.55,77.5,7.67,77.55Z"/><path class="cls-1" d="M6.64,77.43l2.77-.15A12.31,12.31,0,0,0,6.64,77.43Z"/><polygon class="cls-1" points="1.74 64.1 2.06 69.53 2.03 68.65 1.74 64.1"/><polygon class="cls-1" points="16.69 77.34 19.49 77.12 18.26 77.2 16.69 77.34"/><path class="cls-1" d="M25.65,77.11c1.91-.08,3.54-.19,5-.3-1.55.09-3.22.13-5.37.14C24.12,77.07,26.88,77,25.65,77.11Z"/><path class="cls-1" d="M33.11,76.65l-2.46.16C31.48,76.77,32.29,76.72,33.11,76.65Z"/><path class="cls-1" d="M14.13,77.14a21.66,21.66,0,0,0,2.19,0l-1.1-.07Z"/><path class="cls-1" d="M15.18,77.1h0L17.58,77Z"/><path class="cls-1" d="M13.86,77.15h.27A.82.82,0,0,0,13.86,77.15Z"/><path class="cls-1" d="M2.35,76.53l0-.06Z"/><path class="cls-1" d="M2.32,76.47a1.43,1.43,0,0,1-.15-.55A1.26,1.26,0,0,0,2.32,76.47Z"/><path class="cls-1" d="M2.44,76.67l-.09-.14A1.1,1.1,0,0,0,2.44,76.67Z"/><path class="cls-1" d="M3.86,77.14c-.28,0-.48,0-.5,0s0,0,0,.06,0,0-.3,0a1.23,1.23,0,0,1-.49-.31,1.32,1.32,0,0,0,.87.43,2,2,0,0,0,.44,0l.34,0,.58,0C5.48,77.17,5.51,77.13,3.86,77.14Z"/><polygon class="cls-1" points="2.6 76.87 2.61 76.88 2.6 76.87 2.6 76.87"/><path class="cls-1" d="M2.5,76.75l-.06-.08Z"/><path class="cls-1" d="M2.6,76.87l-.1-.12Z"/><path class="cls-1" d="M9.34,77.24l3.16-.18-2.95.07C9.61,77.16,10.14,77.18,9.34,77.24Z"/><polygon class="cls-1" points="12.5 77.06 13.59 77.03 13.94 76.98 12.5 77.06"/><path class="cls-1" d="M28.07,76.72c1.27-.09,2.66-.14,4.23-.2l-5.08.13C27,76.7,26.26,76.78,28.07,76.72Z"/><path class="cls-1" d="M21.81,76.89h.28C21.91,76.88,21.77,76.88,21.81,76.89Z"/><path class="cls-1" d="M47.77,76l-.25,0-.06,0Z"/><path class="cls-1" d="M26.93,76.64c-1.26,0-2,.08-2.74.13l3-.12C27.32,76.64,27.34,76.63,26.93,76.64Z"/><path class="cls-1" d="M37.43,76.46h-2.2C35.88,76.48,37.19,76.49,37.43,76.46Z"/><path class="cls-1" d="M22.52,76.89l-.19,0C22.74,76.91,22.69,76.9,22.52,76.89Z"/><path class="cls-1" d="M22.52,76.89l1.67-.12-2.1.11Z"/><path class="cls-1" d="M42,76.17l-1.2,0c1.37,0,2.34,0,4.15,0A20.25,20.25,0,0,0,47.46,76l-5.89.19Z"/><path class="cls-1" d="M37.44,76.06c-3.51.12-2.45.17-4.55.29,5.67-.22-1.63.11,2.47,0l-3.06.13,2.93,0h-.15c-.24,0-.32,0,0,0h.12a1.52,1.52,0,0,1,.25,0c1.65,0,.26,0-.25,0l-.07,0h0l5.68-.25-5.38.18C36.34,76.26,39.21,76.12,37.44,76.06Z"/><path class="cls-1" d="M6.88,76.8l.19,0C7.43,76.8,7.57,76.78,6.88,76.8Z"/><path class="cls-1" d="M11.84,76.94,12,77C12.09,77,12,77,11.84,76.94Z"/><path class="cls-1" d="M6.78,77l.4,0c1.8,0,4,0,4.66,0-.61-.06-1.22-.11-2.62-.15-.41,0-.75.08-2.1.12-1.16,0,0,0,0-.09C6.26,76.88,4.24,77,6.78,77Z"/><path class="cls-1" d="M27.2,76.35H24.79l.13,0c-2.69.07-2.11.12-2.44.17Z"/><polygon class="cls-1" points="47.69 76.18 50.42 75.92 48.31 76.04 47.69 76.18"/><polygon class="cls-1" points="54.23 75.93 55.86 75.82 54.46 75.82 54.23 75.93"/><path class="cls-1" d="M209.46,70.8l-.63-.09c-1.41.06-2.49.09-3.42.1A35.8,35.8,0,0,0,209.46,70.8Z"/><path class="cls-1" d="M117.41,73.7c1.75,0,3.14,0,4.36-.08A42.48,42.48,0,0,0,117.41,73.7Z"/><path class="cls-1" d="M333.25,2.89a6.26,6.26,0,0,0-.11-1.18C333.19,2.58,333.22,3.08,333.25,2.89Z"/><path class="cls-1" d="M126.82,73.45h-.93l-4.12.17C123.33,73.61,125.11,73.58,126.82,73.45Z"/><path class="cls-1" d="M20.77,10.29l-2.39.08Z"/><path class="cls-1" d="M79.19,75.05c-1.3,0-.2,0,0,0Z"/><path class="cls-1" d="M73.36,74.76a3.45,3.45,0,0,1-.52.07A2,2,0,0,0,73.36,74.76Z"/><path class="cls-1" d="M77.23,75.07l1.67,0Z"/><path class="cls-1" d="M77.49,75.11l-1.14,0C76.19,75.16,76.34,75.17,77.49,75.11Z"/><path class="cls-1" d="M79.19,75.05,81,75,78.9,75C79.15,75,79.26,75,79.19,75.05Z"/><path class="cls-1" d="M334.94,63.84c0-.65,0-1.37-.06-2.19l0,.1c-.11-7.49-.17-3.23-.26-10.62l-.11.41c-.28-.68-.06-6.55-.3-10.83l0,1.55c-.16-2.34.14-6.55.09-8.9a9.67,9.67,0,0,1,.1,1.52c0-6.16-.18-.79-.37-5.38.06-.84.25,1.09.17-2,0-1.54-.58-8.94-.55-13.15,0,.93-.07,1.85-.19-.28-.13-3.26,0-8.83-.35-11.77a2.16,2.16,0,0,1,0-.59,4.54,4.54,0,0,0-.06-.6,1.53,1.53,0,0,0-.42-.71,1.51,1.51,0,0,0-.8-.39,5.73,5.73,0,0,0-.74,0l-2.84.14c-1.9.09-3.68.18-4.43.26-2.31-.33-15.5.72-15.46.34L300.72,1l.2,0c-4.91.13-6.64.28-8.36.43-1.13,0-.31,0-.21-.07-7.17.16-7.89.2-13.89.59l-.63-.11c-1.62.13-10.37.15-17.39.53a5,5,0,0,1,.77-.08c-7.9.41-18.95.28-21.83.83l-5.21.29c6.75-.19-1,.23,1.78.21-2.66.11-6.87.09-3.61,0h.51c1.19-.27-8.39.2-8.22,0L186,4.76l1.44.13L183,5c-1.14,0-1.53-.1,1.57-.19-.82,0-2.12,0-3.22.11s-2,.17-2.06.19c-6.07.13,2.36-.29.5-.23L177.31,5h.57c-2,.14-2.23.22-5.95.34-2.36,0-1.21-.07-2.14,0h-.29l-1.13,0-5.47.17,2.19.07c-2.42.15-5.14.16-2.62.24-3.71-.13-20.4.59-22.68.58-3.39.22-6.74.33-10.89.46,1,0,1.65.13-1.93.23,1.3-.37-6.56.08-9.46-.07,2.59.07-10.18.38-6.12.47-3,.07-.18-.12-2.45-.12-7.11.36-15.68.43-24.47.77-.13,0,1.34.06-.54.19l-4.65-.06a36.48,36.48,0,0,1-4.77.26c.45,0,1.12.05,0,.1C57.24,9,39.28,10,21.78,10.16c2.37,0,.79.06-1,.13,1.17,0,0,.11.21.16l-7.33.07c-1.33.21-7.85.28-8.61.46l2.32-.11c-1.69.16-.22.23,1.38.3l-7.22.24a1,1,0,0,0-1,1l1,30.11L2.66,75.91a1,1,0,0,0,1,1l33.24-1.1,3.39-.11-.45,0,.12,0c1.52,0,2.63-.12,1.74-.12l4.07-.13c-2.49.17-.68.42,1.72.51a14.49,14.49,0,0,1,3-.24c-1,0-6.46.09-4-.08,3.85-.18,3.16-.07,5-.08-1.42-.06,3.52-.28,4.07-.44L79,74.38c-.14,0-.12,0,.17,0l2.17-.1c2,.05-4.08.29-1.33.25-2.91.17-6.17.4-10.27.47L69,74.92c.09,0,2.68,0,3.84-.09-1.71.13-6.3,0-8.17.27h2.88c-2.92.17-6.53.46-10.17.53,1.66.09.84,0,3.43,0-2.25-.14,9.3-.29,5.69-.41,2.66.12,4.59-.06,8.06,0-.11,0-1.23-.06,1.82-.13l.67-.07h0c.13,0,.14,0-.06,0-.73,0-1.32,0-1.56,0,1.51-.17,6.36-.32,8-.44,1.81,0-.75.09.24.11l2.44-.17c.25.1,4.82,0,.56.23l3.84-.12c2.26,0,5.37-.09,7.28-.2s4.57-.28,3-.14l6-.27.05,0c5.94-.18,12.22-.59,19-.62,2-.09,4.07-.19,7.41-.27l.66.07c2.56-.12,7.71-.16,8.81-.29,2.78.17,12.46-.36,17-.46l.17-.14c3.1-.09,6.08-.23,9.94-.41l-.24-.1c3.32-.2,8.55-.2,13.82-.39-.36.05-1.7.09-2.64.09,6.29,0,13.25-.62,19-.63,1.42-.08,2.45-.1,3.45-.11l-.36,0,.59,0h.31l4.39-.19.69.1.38,0c1.6,0,1.28-.1.43-.16l2.15-.14c1.3.15,4.27-.21,6.05-.06,1-.13,7.15-.32,8.75-.54,1.8,0,3.6-.07,5.21-.18l.78.12,4-.33c2.41,0,3.41,0,1,.23,5.77-.37,4.68-.23,9.59-.57l-.24.11c1.76-.06,4.56-.29,5.62-.24,3.94.06,19.43-.62,29.52-.78-2-.23,4.69,0,5.08-.26.59,0,2,0,.37.15,5.14-.24,7.73-.15,11.28-.45.59,0-1.1.13-.58.16s1.64-.12,2.17-.09-.75.08-1.56.14c5.25-.19,5.78-.42,6.15-.63a50.16,50.16,0,0,0,5.92-.25c.93,0,2.48,0-.79.19,1.84-.06,11.23-.28,11.41-.45.57,0,2.57-.07,3.05-.1l8.53-.28H332c.4-.06.81-.1,1.25-.13l.71,0a1.22,1.22,0,0,0,.77-.44,1.26,1.26,0,0,0,.27-.92C335,64.47,335,64.17,334.94,63.84ZM169.3,5.36h.86C168.22,5.46,168.77,5.41,169.3,5.36ZM46.24,75.46l5-.16C50,75.38,48.06,75.46,46.24,75.46Zm6-.19h.37Zm41.26-.79h.1C95.7,74.45,95,74.45,93.48,74.48Zm15.15-.88c-8.9.26-7.57.62-15,.71-2.93,0-.14-.26-.79-.34,3.85-.18,5.92-.11,8.54-.2l-3.22,0c1.22-.08,3.8-.2,5.2-.21h-1.29L120.36,73c-1.75.19-5,.42-8.85.61C106.78,73.82,109.45,73.54,108.63,73.6Zm32-1.16c.15,0-.29-.07-.63-.09l3.84-.12C142.76,72.31,141.61,72.39,140.6,72.44Zm25.64-.62c-.47,0-7,.05-8.55,0a2.79,2.79,0,0,1-.49,0l4.65-.15.11.18.55-.2,4.55-.16C167.08,71.6,166.82,71.74,166.24,71.82ZM188.59,71l-4.22.24c1.12-.13,3.09-.33,5.29-.55l7-.23c-2,.23-4.45.45-7,.59Zm38-1.22.3-.05C226.94,69.76,227.39,69.76,226.59,69.79ZM237,69.36c.28-.07.14-.14-.05-.22l3.25-.11ZM306.07,67c-.63,0-.11-.08.75-.18l-1,.07c-.75,0-1,0-1-.05l2.6-.08-.6.06,1.26-.08,1.17,0,2.06,0Z"/><path class="cls-1" d="M66,75.47s.45,0,0,.07l2.53-.11C67.16,75.48,66.67,75.47,66,75.47Z"/><path class="cls-1" d="M66,75.54h0Z"/><path class="cls-1" d="M59.45,75.31c-.58.16,1.52,0,3.62-.07a32.37,32.37,0,0,0-4,.08Z"/><path class="cls-1" d="M56.81,75.4a10.32,10.32,0,0,0,1.83-.06Z"/><path class="cls-1" d="M83.47,74.83c-.94,0-.58.14-1.11.12C81.31,75.11,88.61,74.59,83.47,74.83Z"/><polygon class="cls-1" points="61.46 74.96 62.17 75.06 63.28 74.92 61.46 74.96"/><path class="cls-1" d="M73.92,74.6a4.08,4.08,0,0,1-.84.07c2-.06,4.08-.1,4-.14Z"/><path class="cls-1" d="M73.08,74.67c-1,0-2,.07-2.55.11Z"/><path class="cls-1" d="M112.65,73.29c-.82.06-2.1.11-1.57.14l3.45-.15C114.88,73.22,113.94,73.23,112.65,73.29Z"/><polygon class="cls-1" points="8.74 10.56 6.11 10.59 7.81 10.62 8.74 10.56"/><path class="cls-1" d="M3.7,10.91l-.62-.14L1.5,11C2.1,10.94,3.25,10.89,3.7,10.91Z"/><path class="cls-2" d="M25.14,24.42a15.66,15.66,0,0,1,6.18-1.13v8.12c-1-.08-1.64-.11-2-.11a8.06,8.06,0,0,0-5.92,2.11q-2.15,2.12-2.14,6.35V54.08h-8.8V23.74h8.4v4A9.77,9.77,0,0,1,25.14,24.42Z"/><path class="cls-2" d="M59.46,26.64Q63.24,30,63.24,36.77V54.08H55V50.3q-2.47,4.23-9.24,4.23a14.35,14.35,0,0,1-6.07-1.18,9,9,0,0,1-3.92-3.27,8.53,8.53,0,0,1-1.35-4.74,7.92,7.92,0,0,1,3.18-6.66q3.19-2.41,9.85-2.42h7a5.6,5.6,0,0,0-1.75-4.43,7.7,7.7,0,0,0-5.24-1.55,15.55,15.55,0,0,0-4.77.76,12.89,12.89,0,0,0-4,2.06L35.55,27a19.07,19.07,0,0,1,6-2.7,26.6,26.6,0,0,1,7.13-1Q55.68,23.29,59.46,26.64ZM52,47.57a5.74,5.74,0,0,0,2.48-3.08v-3.1h-6Q43,41.39,43,45a3.14,3.14,0,0,0,1.33,2.67,5.93,5.93,0,0,0,3.63,1A7.73,7.73,0,0,0,52,47.57Z"/><path class="cls-2" d="M96.83,25.23a14,14,0,0,1,5.44,5.47,16.62,16.62,0,0,1,2,8.21,16.6,16.6,0,0,1-2,8.21,14,14,0,0,1-5.44,5.47,15.46,15.46,0,0,1-7.7,1.94q-5.82,0-9.14-3.66V65h-8.8V23.74H79.6v3.5q3.25-4,9.53-3.95A15.56,15.56,0,0,1,96.83,25.23ZM93.16,45a8.5,8.5,0,0,0,2.17-6.12,8.5,8.5,0,0,0-2.17-6.12,7.91,7.91,0,0,0-11.11,0,8.5,8.5,0,0,0-2.17,6.12A8.5,8.5,0,0,0,82.05,45a7.91,7.91,0,0,0,11.11,0Z"/><path class="cls-2" d="M128.89,53.6a19.14,19.14,0,0,1-5.75-2.34L126.07,45A18.38,18.38,0,0,0,131,47.06a20.29,20.29,0,0,0,5.63.82q5.59,0,5.59-2.77a2,2,0,0,0-1.52-1.86,23.55,23.55,0,0,0-4.69-1A43.91,43.91,0,0,1,129.85,41a9.61,9.61,0,0,1-4.21-2.6,7.39,7.39,0,0,1-1.77-5.3,8.27,8.27,0,0,1,1.66-5.1,10.72,10.72,0,0,1,4.85-3.47,20.7,20.7,0,0,1,7.53-1.24,29.46,29.46,0,0,1,6.4.7,17.79,17.79,0,0,1,5.28,2l-2.94,6.26a17.54,17.54,0,0,0-8.74-2.26,9,9,0,0,0-4.23.79,2.33,2.33,0,0,0-1.41,2,2,2,0,0,0,1.53,2,27.52,27.52,0,0,0,4.85,1.07,51.4,51.4,0,0,1,6.09,1.32,9.11,9.11,0,0,1,4.11,2.57,7.26,7.26,0,0,1,1.75,5.19,8,8,0,0,1-1.69,5A10.79,10.79,0,0,1,144,53.32a22,22,0,0,1-7.7,1.21A29.46,29.46,0,0,1,128.89,53.6Z"/><path class="cls-2" d="M162,52.53a14.94,14.94,0,0,1-6-5.55,15.15,15.15,0,0,1-2.17-8.07A14.88,14.88,0,0,1,162,25.29a18.69,18.69,0,0,1,8.71-2,17,17,0,0,1,8.38,2A11.91,11.91,0,0,1,184.27,31l-6.82,3.67a7.47,7.47,0,0,0-6.83-4.17,7.72,7.72,0,0,0-5.69,2.25,8.31,8.31,0,0,0-2.26,6.15,8.28,8.28,0,0,0,2.26,6.15,7.72,7.72,0,0,0,5.69,2.25,7.39,7.39,0,0,0,6.83-4.17l6.82,3.72a12.1,12.1,0,0,1-5.21,5.64,16.64,16.64,0,0,1-8.38,2A18.57,18.57,0,0,1,162,52.53Z"/><path class="cls-2" d="M202,24.42a15.66,15.66,0,0,1,6.18-1.13v8.12c-1-.08-1.64-.11-2-.11a8.06,8.06,0,0,0-5.92,2.11q-2.14,2.12-2.14,6.35V54.08h-8.8V23.74h8.4v4A9.77,9.77,0,0,1,202,24.42Z"/><path class="cls-2" d="M236.33,26.64q3.78,3.36,3.78,10.13V54.08h-8.24V50.3q-2.48,4.23-9.24,4.23a14.35,14.35,0,0,1-6.07-1.18,9,9,0,0,1-3.92-3.27,8.53,8.53,0,0,1-1.35-4.74,7.91,7.91,0,0,1,3.19-6.66q3.18-2.41,9.84-2.42h7a5.6,5.6,0,0,0-1.75-4.43,7.7,7.7,0,0,0-5.24-1.55,15.55,15.55,0,0,0-4.77.76,12.89,12.89,0,0,0-4,2.06L212.42,27a19.07,19.07,0,0,1,6-2.7,26.6,26.6,0,0,1,7.13-1Q232.55,23.29,236.33,26.64Zm-7.5,20.93a5.74,5.74,0,0,0,2.48-3.08v-3.1h-6q-5.42,0-5.42,3.56a3.14,3.14,0,0,0,1.33,2.67,5.93,5.93,0,0,0,3.63,1A7.73,7.73,0,0,0,228.83,47.57Z"/><path class="cls-2" d="M273.7,25.23a14,14,0,0,1,5.44,5.47,16.62,16.62,0,0,1,2,8.21,16.6,16.6,0,0,1-2,8.21,14,14,0,0,1-5.44,5.47,15.46,15.46,0,0,1-7.7,1.94q-5.82,0-9.14-3.66V65h-8.8V23.74h8.41v3.5q3.25-4,9.53-3.95A15.56,15.56,0,0,1,273.7,25.23ZM270,45a8.5,8.5,0,0,0,2.17-6.12A8.5,8.5,0,0,0,270,32.79a7.91,7.91,0,0,0-11.11,0,8.5,8.5,0,0,0-2.17,6.12A8.5,8.5,0,0,0,258.92,45,7.91,7.91,0,0,0,270,45Z"/><path class="cls-2" d="M289.8,53.6A19.32,19.32,0,0,1,284,51.26L287,45a18.45,18.45,0,0,0,4.9,2.11,20.41,20.41,0,0,0,5.64.82q5.6,0,5.59-2.77a2,2,0,0,0-1.52-1.86,23.55,23.55,0,0,0-4.69-1A43.91,43.91,0,0,1,290.76,41a9.61,9.61,0,0,1-4.21-2.6,7.39,7.39,0,0,1-1.77-5.3,8.27,8.27,0,0,1,1.66-5.1,10.72,10.72,0,0,1,4.85-3.47,20.7,20.7,0,0,1,7.53-1.24,29.52,29.52,0,0,1,6.4.7,17.89,17.89,0,0,1,5.28,2l-2.94,6.26a17.54,17.54,0,0,0-8.74-2.26,9,9,0,0,0-4.23.79,2.33,2.33,0,0,0-1.41,2,2,2,0,0,0,1.52,2,27.9,27.9,0,0,0,4.86,1.07,51.4,51.4,0,0,1,6.09,1.32,9.11,9.11,0,0,1,4.11,2.57,7.26,7.26,0,0,1,1.75,5.19,8,8,0,0,1-1.69,5,10.77,10.77,0,0,1-4.94,3.41,21.9,21.9,0,0,1-7.69,1.21A29.46,29.46,0,0,1,289.8,53.6Z"/></g></g></svg>